<svg preserveAspectRatio="none" overflow="visible" style="display: block;" width="20.1349" height="20.3959" viewBox="0 0 20.1349 20.3959" fill="none" xmlns="http://www.w3.org/2000/svg">
<g id="Vector">
<path d="M13.9479 5.85608C13.7804 5.68856 13.5116 5.68856 13.3479 5.85608L9.78716 9.41685L6.22639 5.85608C6.05887 5.68856 5.79006 5.68856 5.62643 5.85608C5.45891 6.0236 5.45891 6.29241 5.62643 6.45604L9.1872 10.0168L5.62643 13.5776C5.45891 13.7451 5.45891 14.0139 5.62643 14.1775C5.70824 14.2593 5.81733 14.3022 5.92641 14.3022C6.03549 14.3022 6.14457 14.2593 6.22639 14.1775L9.78716 10.6168L13.3479 14.1775C13.4297 14.2593 13.5388 14.3022 13.6479 14.3022C13.757 14.3022 13.8661 14.2593 13.9479 14.1775C14.1154 14.01 14.1154 13.7412 13.9479 13.5776L10.3871 10.0168L13.9479 6.45604C14.1154 6.29241 14.1154 6.0236 13.9479 5.85608Z" fill="#879DDA"/>
<path d="M10.0674 0.25C4.65226 0.25 0.25 4.65616 0.25 10.0674C0.25 12.179 0.912288 14.1853 2.15895 15.88C2.09661 16.3514 1.97195 16.7994 1.78105 17.2124C1.49276 17.824 1.13045 18.2175 0.865538 18.5019C0.573352 18.8174 0.269479 19.1447 0.433103 19.5693C0.600623 19.994 1.1811 20.1459 1.9252 20.1459C2.64982 20.1459 3.52638 20.0018 4.31333 19.8303C5.00289 19.6784 5.68076 19.4719 6.33136 19.207C6.35473 19.1992 6.37421 19.1875 6.39369 19.1719C7.56243 19.6433 8.79741 19.8849 10.0674 19.8849C12.5413 19.8849 14.906 18.9616 16.7215 17.2864C16.8929 17.1266 16.9046 16.8578 16.7449 16.6864C16.5851 16.515 16.3163 16.5033 16.1449 16.663C14.4853 18.1941 12.327 19.0356 10.0674 19.0356C8.83636 19.0356 7.64035 18.7902 6.51836 18.3071C6.34694 18.2331 6.15605 18.2798 6.03917 18.4084C6.02749 18.4123 6.01969 18.4123 6.00801 18.4162C5.40026 18.6616 4.76914 18.8564 4.12633 18.9966C2.86798 19.2732 1.75378 19.3395 1.32914 19.2499C1.37589 19.1953 1.43433 19.133 1.48497 19.0784C1.76937 18.7707 2.2018 18.3071 2.54463 17.5708C2.80176 17.0254 2.96148 16.4332 3.01992 15.806C3.03161 15.6774 2.98486 15.5566 2.89915 15.4709C2.89136 15.4592 2.88357 15.4437 2.87578 15.432C1.71093 13.8736 1.09149 12.0192 1.09149 10.0635C1.09929 5.12366 5.12366 1.09929 10.0674 1.09929C15.0112 1.09929 19.0356 5.12366 19.0356 10.0674C19.0356 11.7426 18.572 13.375 17.6915 14.7931C17.5669 14.9917 17.6292 15.2567 17.8279 15.3774C18.0266 15.5021 18.2915 15.4398 18.4123 15.2411C19.3745 13.6905 19.8849 11.9024 19.8849 10.0674C19.8849 4.65616 15.4826 0.25 10.0674 0.25Z" fill="#879DDA"/>
<path d="M13.9479 5.85608C13.7804 5.68856 13.5116 5.68856 13.3479 5.85608L9.78716 9.41685L6.22639 5.85608C6.05887 5.68856 5.79006 5.68856 5.62643 5.85608C5.45891 6.0236 5.45891 6.29241 5.62643 6.45604L9.1872 10.0168L5.62643 13.5776C5.45891 13.7451 5.45891 14.0139 5.62643 14.1775C5.70824 14.2593 5.81733 14.3022 5.92641 14.3022C6.03549 14.3022 6.14457 14.2593 6.22639 14.1775L9.78716 10.6168L13.3479 14.1775C13.4297 14.2593 13.5388 14.3022 13.6479 14.3022C13.757 14.3022 13.8661 14.2593 13.9479 14.1775C14.1154 14.01 14.1154 13.7412 13.9479 13.5776L10.3871 10.0168L13.9479 6.45604C14.1154 6.29241 14.1154 6.0236 13.9479 5.85608Z" stroke="#8BB5E8" stroke-width="0.5"/>
<path d="M10.0674 0.25C4.65226 0.25 0.25 4.65616 0.25 10.0674C0.25 12.179 0.912288 14.1853 2.15895 15.88C2.09661 16.3514 1.97195 16.7994 1.78105 17.2124C1.49276 17.824 1.13045 18.2175 0.865538 18.5019C0.573352 18.8174 0.269479 19.1447 0.433103 19.5693C0.600623 19.994 1.1811 20.1459 1.9252 20.1459C2.64982 20.1459 3.52638 20.0018 4.31333 19.8303C5.00289 19.6784 5.68076 19.4719 6.33136 19.207C6.35473 19.1992 6.37421 19.1875 6.39369 19.1719C7.56243 19.6433 8.79741 19.8849 10.0674 19.8849C12.5413 19.8849 14.906 18.9616 16.7215 17.2864C16.8929 17.1266 16.9046 16.8578 16.7449 16.6864C16.5851 16.515 16.3163 16.5033 16.1449 16.663C14.4853 18.1941 12.327 19.0356 10.0674 19.0356C8.83636 19.0356 7.64035 18.7902 6.51836 18.3071C6.34694 18.2331 6.15605 18.2798 6.03917 18.4084C6.02749 18.4123 6.01969 18.4123 6.00801 18.4162C5.40026 18.6616 4.76914 18.8564 4.12633 18.9966C2.86798 19.2732 1.75378 19.3395 1.32914 19.2499C1.37589 19.1953 1.43433 19.133 1.48497 19.0784C1.76937 18.7707 2.2018 18.3071 2.54463 17.5708C2.80176 17.0254 2.96148 16.4332 3.01992 15.806C3.03161 15.6774 2.98486 15.5566 2.89915 15.4709C2.89136 15.4592 2.88357 15.4437 2.87578 15.432C1.71093 13.8736 1.09149 12.0192 1.09149 10.0635C1.09929 5.12366 5.12366 1.09929 10.0674 1.09929C15.0112 1.09929 19.0356 5.12366 19.0356 10.0674C19.0356 11.7426 18.572 13.375 17.6915 14.7931C17.5669 14.9917 17.6292 15.2567 17.8279 15.3774C18.0266 15.5021 18.2915 15.4398 18.4123 15.2411C19.3745 13.6905 19.8849 11.9024 19.8849 10.0674C19.8849 4.65616 15.4826 0.25 10.0674 0.25Z" stroke="#8BB5E8" stroke-width="0.5"/>
</g>
</svg>
