<svg preserveAspectRatio="none" overflow="visible" style="display: block;" width="160" height="35.852" viewBox="0 0 160 35.852" fill="none" xmlns="http://www.w3.org/2000/svg">
<g id="Group 1">
<path id="Vector" d="M17.46 13.9714C18.2153 12.2948 18.9696 10.6173 19.7231 8.93894L21.9225 14.0143L27.4627 13.4181L24.0998 17.8446L27.3036 22.2713L21.9239 21.711C21.1548 23.4207 20.3861 25.1301 19.6179 26.8389L17.4392 21.6999L12.0152 22.2989C13.0942 20.8077 14.1728 19.3169 15.2508 17.8267L12.0319 13.4706L17.46 13.9714Z" fill="#282828"/>
<path id="Vector_2" d="M10.6199 11.2283H15.7672L19.2974 5.07532H32.9797L31.3114 2.32671C31.3114 2.32671 30.2338 0.634924 27.7591 0.0636176H16.9693L10.6199 11.2283Z" fill="#282828"/>
<path id="Vector_3" d="M9.35854 22.3861L11.9481 17.9346L8.43446 11.6723L15.1075 0L12.0726 0.0235162C12.0726 0.0235162 10.0682 0.105131 8.32933 1.96014C7.47725 3.35729 6.6228 4.78671 5.76607 6.24842C4.77839 7.94616 3.82345 9.62227 2.90125 11.2767L9.35854 22.3861Z" fill="#282828"/>
<path id="Vector_4" d="M18.8204 29.1974L15.838 24.5826L8.74851 24.5909L2.00903 12.8328C1.54331 13.5789 1.07806 14.3245 0.613271 15.0696C0.37739 15.5792 0.206815 16.1165 0.105597 16.6687C-0.0954825 17.8087 -0.00846432 18.9808 0.358742 20.0786C1.11311 21.4277 1.91173 22.8042 2.75463 24.2077C3.79211 25.9267 4.83053 27.5696 5.86985 29.1365L18.8204 29.1974Z" fill="#282828"/>
<path id="Vector_5" d="M28.6968 24.4485L23.5482 24.5025L19.917 30.7467L6.48924 30.7882L8.10354 33.5687C8.10354 33.5687 9.19911 35.248 11.6794 35.793L22.2852 35.7792L28.6968 24.4485Z" fill="#282828"/>
<path id="Vector_6" d="M30.0006 13.3641L27.3156 17.9111L30.8888 24.0695C28.6413 27.9843 26.3925 31.8986 24.1424 35.8124C25.018 35.8782 25.898 35.862 26.7707 35.764C27.3218 35.7184 27.8674 35.6206 28.4002 35.4722C29.4399 35.1476 30.3839 34.5723 31.1488 33.797C31.6537 32.9227 32.2707 31.8603 32.777 30.9847C34.0155 28.848 35.2558 26.7121 36.4981 24.5772L30.0006 13.3641Z" fill="#282828"/>
<path id="Vector_7" d="M20.5917 6.63986L23.5146 11.2892L30.6096 11.2491L37.3546 22.9006C37.8498 22.149 38.3446 21.397 38.8389 20.6445C39.0692 20.1313 39.2342 19.5913 39.3299 19.0371C39.5188 17.8949 39.4189 16.7237 39.0395 15.63C38.3478 14.3006 37.5731 12.9201 36.721 11.5036C35.6849 9.78137 34.6461 8.18363 33.6114 6.72425L20.5917 6.63986Z" fill="#282828"/>
<path id="Vector_8" d="M62.8234 5.68114V19.6613H59.7178V8.01472H53.117V16.1684C53.117 18.3192 51.0304 20.0505 48.4584 20.0505V17.3254C49.3184 17.3254 50.0109 16.805 50.0109 16.1619V5.67901L62.8234 5.68114Z" fill="#282828"/>
<path id="Vector_9" d="M80.5211 13.8347H67.2012C67.784 15.8436 69.8359 17.3276 72.2794 17.3276C73.7351 17.3447 75.1386 16.7867 76.1852 15.7748H79.8414C78.5167 18.2976 75.6237 20.0462 72.2708 20.0462C67.6592 20.0462 63.9214 16.7426 63.9214 12.669C63.9214 8.59542 67.6592 5.29181 72.2708 5.29181C76.4301 5.29181 79.8822 7.9846 80.5125 11.5054C80.6502 12.2757 80.6502 13.0644 80.5125 13.8347H80.5211ZM77.3552 11.5054C76.7724 9.49444 74.7205 8.01038 72.2794 8.01038C69.993 8.01038 68.0489 9.30088 67.3327 11.1269C67.2472 11.3462 67.139 11.556 67.0099 11.7528L66.4764 12.555L66.8205 12.7851L67.3668 11.9657C67.4613 11.8239 67.589 11.7076 67.739 11.6272C67.8894 11.5469 68.057 11.5051 68.2274 11.5054H77.3552Z" fill="#282828"/>
<path id="Vector_10" d="M92.1827 5.68111V8.01037H84.8058V19.6569H81.6954V5.6768L92.1827 5.68111Z" fill="#282828"/>
<path id="Vector_11" d="M107.384 8.10928L97.3675 16.8952C99.1313 18.0201 101.654 17.7835 103.491 16.1725C104.596 15.2255 105.283 13.8807 105.403 12.4302L108.15 10.0127C108.816 12.7829 107.794 16.0048 105.274 18.2158C101.807 21.257 96.8193 21.2269 94.1329 18.175C91.4464 15.123 92.0791 10.1655 95.5459 7.12425C98.6733 4.382 103.041 4.1282 105.839 6.3607C106.145 6.60419 106.428 6.87407 106.685 7.16726C106.945 7.46025 107.179 7.77546 107.384 8.10928ZM103.467 8.44699C101.704 7.31995 99.1807 7.55656 97.3462 9.16536C95.6256 10.6709 95.0233 12.9335 95.6816 14.7703C95.7623 14.9917 95.8202 15.2209 95.8534 15.4542L95.9806 16.4092L96.3912 16.3532L96.2602 15.3789C96.2379 15.21 96.2574 15.0382 96.3176 14.8787C96.3774 14.7193 96.4762 14.5771 96.6043 14.4648L103.467 8.44699Z" fill="#282828"/>
<path id="Vector_12" d="M124.594 5.68114V19.6612H121.484V13.839H112.945V19.6612H109.84V5.68114H112.945V11.5054H121.484V5.68114H124.594Z" fill="#282828"/>
<path id="Vector_13" d="M142.896 16.9125L142.507 21.5711H139.788V20.3022C139.788 20.1067 139.847 19.9157 139.956 19.7537L140.739 18.5794L140.392 18.3492L139.833 19.1902C139.742 19.3237 139.62 19.4327 139.477 19.5077C139.335 19.5828 139.175 19.6214 139.014 19.6203H129.307C129.145 19.6218 128.986 19.5833 128.843 19.5083C128.699 19.4333 128.577 19.324 128.486 19.1902L127.926 18.3492L127.58 18.5794L128.365 19.7537C128.473 19.9164 128.531 20.1071 128.531 20.3022V21.5711H125.812L125.425 17.2997H126.202C127.062 17.2997 127.754 16.7792 127.754 16.1361L128.141 5.65316H140.567V16.9125H142.896ZM137.461 7.98247H131.247L130.86 16.1361C130.86 16.3978 130.828 16.6585 130.765 16.9125H137.461V7.98247Z" fill="#282828"/>
<path id="Vector_14" d="M160 5.68114V19.6613H156.894V12.6734C156.894 10.0924 154.546 8.01472 151.653 8.01472C148.76 8.01472 146.411 10.101 146.411 12.6734C146.411 15.2457 147.975 17.3319 149.907 17.3319C151.838 17.3319 153.4 15.5941 153.4 13.4498H156.505C156.505 15.2 155.81 16.8786 154.572 18.1164C153.335 19.3543 151.657 20.0499 149.907 20.0505C146.25 20.0505 143.306 16.747 143.306 12.6734C143.306 8.59976 147.042 5.29616 151.653 5.29616C152.916 5.29312 154.167 5.55009 155.327 6.05108C156.042 6.36173 156.615 6.92869 156.933 7.64051L157.482 8.87506L157.86 8.70727L157.161 7.1372C156.985 6.7396 156.894 6.30957 156.894 5.8747V5.68542L160 5.68114Z" fill="#282828"/>
<path id="Vector_15" d="M51.7268 27.5502C51.6637 27.3074 51.5175 27.0944 51.3138 26.948C51.0789 26.7859 50.7989 26.7031 50.5136 26.7114C50.3204 26.7045 50.1282 26.7432 49.9526 26.8243C49.7769 26.9053 49.6232 27.0266 49.5026 27.1781C49.2539 27.5469 49.121 27.9817 49.121 28.4266C49.121 28.8716 49.2539 29.3063 49.5026 29.6751C49.6241 29.8248 49.7789 29.9443 49.954 30.0242C50.1296 30.1041 50.3209 30.1422 50.5136 30.1354C50.7903 30.1434 51.0628 30.0685 51.2968 29.9203C51.5046 29.7795 51.657 29.5702 51.7268 29.3289H52.2494C52.1772 29.6985 51.9693 30.0277 51.6665 30.2516C51.3324 30.4926 50.928 30.6166 50.516 30.6043C50.254 30.6157 49.9929 30.5693 49.7513 30.4681C49.5097 30.367 49.2933 30.2137 49.1177 30.0193C48.7755 29.5592 48.5908 29.0011 48.5908 28.4277C48.5908 27.8543 48.7755 27.2962 49.1177 26.8361C49.2909 26.6394 49.5055 26.4838 49.7461 26.3807C49.9867 26.2776 50.2478 26.2296 50.5093 26.2403C50.9341 26.2283 51.3504 26.3644 51.686 26.6253C51.9817 26.8525 52.1824 27.1813 52.2494 27.548L51.7268 27.5502Z" fill="#282828"/>
<path id="Vector_16" d="M56.4942 29.3504C56.4628 29.5317 56.3954 29.7048 56.2962 29.8596C56.197 30.0144 56.0675 30.1477 55.9156 30.2517C55.5715 30.4942 55.158 30.6187 54.737 30.6065C54.4736 30.6187 54.2111 30.5729 53.9672 30.4726C53.7237 30.3723 53.5044 30.2198 53.3259 30.0258C52.9586 29.5795 52.772 29.0115 52.8033 28.4342C52.7744 27.8573 52.959 27.2899 53.3217 26.8405C53.494 26.6441 53.7071 26.4886 53.9468 26.3851C54.1865 26.2817 54.4461 26.233 54.7071 26.2425C54.9582 26.2318 55.2088 26.2767 55.4409 26.3742C55.673 26.4716 55.8804 26.6191 56.0489 26.8061C56.3992 27.2321 56.5782 27.7736 56.5502 28.3245V28.5547H53.3454V28.5826C53.3236 28.9978 53.4612 29.4058 53.7303 29.7225C53.8585 29.8646 54.0161 29.9768 54.1921 30.0512C54.3687 30.1255 54.559 30.1601 54.7499 30.1526C55.0337 30.1623 55.3133 30.0875 55.5544 29.9376C55.7618 29.8073 55.9118 29.6027 55.974 29.3655L56.4942 29.3504ZM53.7541 27.0986C53.4982 27.3805 53.353 27.7458 53.3454 28.1266H56.0015C56.0143 27.7504 55.8847 27.3832 55.6384 27.0986C55.5188 26.9697 55.3731 26.868 55.2107 26.8005C55.0489 26.7329 54.8737 26.7011 54.6981 26.7072C54.522 26.7018 54.3469 26.7338 54.1841 26.8013C54.0213 26.8688 53.8746 26.9701 53.7541 27.0986Z" fill="#282828"/>
<path id="Vector_17" d="M60.3639 26.7308H58.8968V30.5592H58.3784V26.7308H56.9203V26.2899H60.3615L60.3639 26.7308Z" fill="#282828"/>
<path id="Vector_18" d="M61.0317 26.2899H61.5524V27.7416H62.4751C62.8852 27.7208 63.2882 27.8569 63.6019 28.1224C63.8734 28.3956 64.0258 28.7652 64.0258 29.1504C64.0258 29.5357 63.8734 29.9053 63.6019 30.1785C63.2882 30.444 62.8852 30.5801 62.4751 30.5592H61.0317V26.2899ZM61.5524 28.1847V30.1204H62.4751C62.7499 30.1342 63.0191 30.0383 63.2232 29.8538C63.4021 29.6632 63.5018 29.4117 63.5018 29.1504C63.5018 28.8891 63.4021 28.6377 63.2232 28.4471C63.0186 28.2653 62.7504 28.1711 62.477 28.1847H61.5524Z" fill="#282828"/>
<path id="Vector_19" d="M69.9422 30.5592H69.2497L67.157 28.4708H67.1332V30.5592H66.613V26.2899H67.1332V28.2127H67.157L69.1979 26.2899H69.8648L67.6881 28.3202L69.9422 30.5592Z" fill="#282828"/>
<path id="Vector_20" d="M70.7686 30.0151C70.4236 29.5569 70.237 28.9991 70.237 28.4257C70.237 27.8523 70.4236 27.2944 70.7686 26.8362C70.9523 26.649 71.1716 26.5004 71.4132 26.3989C71.6553 26.2974 71.9149 26.2452 72.1774 26.2452C72.4394 26.2452 72.6995 26.2974 72.9411 26.3989C73.1831 26.5004 73.4024 26.649 73.5861 26.8362C73.9307 27.2944 74.1172 27.8523 74.1172 28.4257C74.1172 28.9991 73.9307 29.5569 73.5861 30.0151C73.4029 30.203 73.1836 30.3524 72.9415 30.4543C72.7 30.5563 72.4399 30.6089 72.1774 30.6089C71.9149 30.6089 71.6548 30.5563 71.4127 30.4543C71.1711 30.3524 70.9519 30.203 70.7686 30.0151ZM73.2054 29.6817C73.4508 29.3088 73.5818 28.8721 73.5818 28.4257C73.5818 27.9792 73.4508 27.5425 73.2054 27.1696C73.0754 27.0261 72.9169 26.9113 72.7394 26.8328C72.5623 26.7543 72.371 26.7137 72.1774 26.7137C71.9837 26.7137 71.792 26.7543 71.6149 26.8328C71.4379 26.9113 71.2794 27.0261 71.1493 27.1696C70.9039 27.5425 70.7729 27.9792 70.7729 28.4257C70.7729 28.8721 70.9039 29.3088 71.1493 29.6817C71.2794 29.8253 71.4379 29.94 71.6149 30.0185C71.792 30.097 71.9837 30.1375 72.1774 30.1375C72.371 30.1375 72.5623 30.097 72.7394 30.0185C72.9169 29.94 73.0754 29.8253 73.2054 29.6817Z" fill="#282828"/>
<path id="Vector_21" d="M74.9271 30.5592V26.2899H75.5508L77.2396 29.8667H77.2629L78.9469 26.2899H79.5449V30.5592H79.0224V27.2427H78.9986L77.4371 30.4689H77.0289L75.4673 27.2427H75.4587V30.5592H74.9271Z" fill="#282828"/>
<path id="Vector_22" d="M80.5676 30.5592V26.2899H81.0859V29.744H81.1096L83.5355 26.2899H84.0605V30.5592H83.5403V27.1072H83.5142L81.0902 30.5592H80.5676Z" fill="#282828"/>
<path id="Vector_23" d="M87.9843 27.5502C87.9216 27.3077 87.7764 27.0947 87.5737 26.948C87.3383 26.7856 87.0573 26.7027 86.7711 26.7114C86.5779 26.7049 86.3862 26.7437 86.2106 26.8247C86.0349 26.9058 85.8807 27.0268 85.7606 27.1781C85.4943 27.537 85.3605 27.977 85.3818 28.4234C85.3571 28.8728 85.4929 29.3163 85.7649 29.6751C85.8864 29.8248 86.0406 29.9443 86.2163 30.0242C86.3914 30.104 86.5832 30.1422 86.7759 30.1354C87.0516 30.1436 87.3236 30.0687 87.5562 29.9204C87.7655 29.7807 87.9183 29.571 87.9867 29.3289H88.5111C88.4395 29.6985 88.2311 30.0277 87.9283 30.2516C87.5941 30.4926 87.1897 30.6166 86.7778 30.6043C86.5162 30.6157 86.2552 30.5692 86.0136 30.4681C85.7715 30.367 85.5555 30.2137 85.3799 30.0193C85.0377 29.5592 84.8526 29.0011 84.8526 28.4277C84.8526 27.8543 85.0377 27.2962 85.3799 26.8361C85.5527 26.6393 85.7672 26.4836 86.0079 26.3805C86.249 26.2774 86.5096 26.2295 86.7711 26.2403C87.1964 26.2283 87.6122 26.3644 87.9477 26.6253C88.2434 26.8525 88.4442 27.1813 88.5111 27.548L87.9843 27.5502Z" fill="#282828"/>
<path id="Vector_24" d="M92.1872 27.5503C92.1241 27.3075 91.9779 27.0945 91.7743 26.948C91.5393 26.7858 91.2593 26.7028 90.974 26.7114C90.7809 26.705 90.5886 26.7438 90.413 26.8249C90.2379 26.9059 90.0836 27.0269 89.963 27.1782C89.7139 27.5469 89.5805 27.9817 89.5805 28.4267C89.5805 28.8718 89.7139 29.3066 89.963 29.6752C90.0846 29.8249 90.2388 29.9445 90.4144 30.0243C90.5901 30.1042 90.7813 30.1423 90.974 30.1356C91.2498 30.1438 91.5218 30.0688 91.7548 29.9204C91.9641 29.7809 92.1165 29.5711 92.1848 29.329H92.7074C92.6372 29.6988 92.4298 30.0283 92.1269 30.2517C91.7928 30.4928 91.3879 30.6167 90.9764 30.6044C90.7139 30.6159 90.4529 30.5694 90.2108 30.4683C89.9687 30.3672 89.7518 30.2139 89.5762 30.0194C89.234 29.5593 89.0489 29.0012 89.0489 28.4278C89.0489 27.8545 89.234 27.2963 89.5762 26.8362C89.749 26.6397 89.964 26.4843 90.2046 26.3812C90.4453 26.2782 90.7059 26.2301 90.9674 26.2405C91.3931 26.2284 91.8099 26.3645 92.1464 26.6254C92.4411 26.853 92.641 27.1817 92.7074 27.5481L92.1872 27.5503Z" fill="#282828"/>
<path id="Vector_25" d="M93.4779 30.5592V26.2899H93.9962V29.744H94.02L96.4482 26.2899H96.9646V30.5592H96.4482V27.1072H96.4202L93.9962 30.5592H93.4779Z" fill="#282828"/>
<path id="Vector_26" d="M98.3031 30.0151C97.9585 29.5569 97.7719 28.9991 97.7719 28.4257C97.7719 27.8522 97.9585 27.2944 98.3031 26.8362C98.4872 26.649 98.7065 26.5003 98.9486 26.3988C99.1906 26.2973 99.4507 26.245 99.7132 26.245C99.9757 26.245 100.235 26.2973 100.477 26.3988C100.719 26.5003 100.939 26.649 101.123 26.8362C101.468 27.2944 101.654 27.8522 101.654 28.4257C101.654 28.9991 101.468 29.5569 101.123 30.0151C100.939 30.2031 100.72 30.3525 100.478 30.4545C100.236 30.5565 99.9757 30.6091 99.7132 30.6091C99.4503 30.6091 99.1902 30.5565 98.9481 30.4545C98.706 30.3525 98.4867 30.2031 98.3031 30.0151ZM100.742 29.6817C100.988 29.3088 101.119 28.8722 101.119 28.4257C101.119 27.9792 100.988 27.5425 100.742 27.1696C100.612 27.026 100.453 26.9112 100.276 26.8327C100.099 26.7542 99.9069 26.7136 99.7132 26.7136C99.5191 26.7136 99.3273 26.7542 99.1503 26.8327C98.9732 26.9112 98.8142 27.026 98.6842 27.1696C98.4383 27.5425 98.3078 27.9792 98.3078 28.4257C98.3078 28.8722 98.4383 29.3088 98.6842 29.6817C98.8142 29.8253 98.9732 29.9401 99.1503 30.0186C99.3273 30.0971 99.5191 30.1377 99.7132 30.1377C99.9069 30.1377 100.099 30.0971 100.276 30.0186C100.453 29.9401 100.612 29.8253 100.742 29.6817Z" fill="#282828"/>
<path id="Vector_27" d="M105.375 28.5611H102.988V30.5592H102.47V26.2899H102.988V28.1224H105.375V26.2899H105.896V30.5592H105.375V28.5611Z" fill="#282828"/>
<path id="Vector_28" d="M109.832 28.5611H107.438V30.5592H106.918V26.2899H107.438V28.1224H109.832V26.2899H110.351V30.5592H109.832V28.5611Z" fill="#282828"/>
<path id="Vector_29" d="M111.377 26.2899H111.895V27.7416H112.82C113.23 27.7209 113.632 27.857 113.945 28.1224C114.216 28.3956 114.369 28.7652 114.369 29.1504C114.369 29.5357 114.216 29.9053 113.945 30.1785C113.632 30.4438 113.23 30.58 112.82 30.5592H111.377V26.2899ZM111.895 28.1847V30.1204H112.82C113.095 30.1342 113.364 30.0383 113.569 29.8538C113.748 29.6637 113.848 29.412 113.848 29.1504C113.848 28.8889 113.748 28.6372 113.569 28.4471C113.364 28.2654 113.097 28.1712 112.824 28.1847H111.895ZM115.003 26.2899H115.524V30.5592H115.003V26.2899Z" fill="#282828"/>
<path id="Vector_30" d="M117.942 28.8L116.761 30.5593H116.166L117.671 28.4085L116.181 26.2878H116.775L117.959 28.0085H117.972L119.145 26.2878H119.74L118.246 28.3891L119.728 30.5571H119.134L117.955 28.7978L117.942 28.8Z" fill="#282828"/>
<path id="Vector_31" d="M122.188 30.5592V26.2899H122.81L124.498 29.8667H124.522L126.208 26.2899H126.81V30.5592H126.287V27.2427H126.264L124.7 30.4689H124.294L122.73 27.2427H122.707V30.5592H122.188Z" fill="#282828"/>
<path id="Vector_32" d="M128.055 30.2668C127.926 30.1567 127.823 30.0189 127.754 29.8637C127.685 29.7085 127.652 29.5397 127.657 29.3699C127.657 28.6286 128.18 28.2207 129.227 28.1462L130.539 28.0579V27.6945C130.547 27.5601 130.527 27.4256 130.478 27.3001C130.429 27.1746 130.354 27.0611 130.257 26.9675C130.032 26.785 129.747 26.6936 129.457 26.7116C129.193 26.7019 128.933 26.7772 128.715 26.9266C128.52 27.0716 128.39 27.287 128.352 27.5267H127.848C127.856 27.3468 127.903 27.1707 127.987 27.0114C128.071 26.8521 128.19 26.7137 128.335 26.6062C128.657 26.3587 129.055 26.231 129.461 26.2448C129.885 26.2232 130.302 26.3588 130.631 26.6256C130.775 26.7539 130.889 26.9129 130.963 27.0908C131.038 27.2687 131.071 27.461 131.061 27.6536V30.5615H130.561V29.7463C130.44 30.0094 130.239 30.2282 129.988 30.3722C129.719 30.5313 129.411 30.6132 129.098 30.6088C128.72 30.6284 128.348 30.5065 128.055 30.2668ZM130.152 29.8022C130.276 29.6991 130.375 29.5693 130.442 29.4227C130.509 29.276 130.542 29.1161 130.539 28.9549V28.4838L129.292 28.5699C128.559 28.6172 128.192 28.8853 128.192 29.3743C128.19 29.4829 128.214 29.5905 128.263 29.6879C128.311 29.7853 128.382 29.8696 128.47 29.9335C128.68 30.084 128.935 30.1597 129.193 30.1485C129.545 30.1585 129.888 30.0339 130.152 29.8001V29.8022Z" fill="#282828"/>
<path id="Vector_33" d="M132.554 26.7308V30.5592H132.034V26.2899H134.742V26.7308H132.554Z" fill="#282828"/>
<path id="Vector_34" d="M135.539 30.2667C135.41 30.1565 135.307 30.0186 135.238 29.8634C135.17 29.7081 135.137 29.5395 135.143 29.3698C135.143 28.6285 135.666 28.2206 136.713 28.1461L138.025 28.0578V27.6944C138.033 27.5601 138.012 27.4257 137.963 27.3003C137.914 27.1749 137.839 27.0614 137.743 26.9674C137.518 26.7849 137.232 26.6935 136.943 26.7115C136.679 26.7018 136.419 26.7771 136.201 26.9265C136.006 27.0715 135.876 27.2869 135.838 27.5266H135.334C135.341 27.3465 135.388 27.1703 135.472 27.0109C135.556 26.8516 135.675 26.7132 135.82 26.6061C136.142 26.3583 136.541 26.2306 136.947 26.2447C137.37 26.2236 137.786 26.3592 138.115 26.6255C138.259 26.7538 138.372 26.9128 138.447 27.0907C138.521 27.2686 138.555 27.4609 138.546 27.6535V30.5614H138.046V29.7462C137.925 30.0088 137.725 30.2274 137.474 30.3721C137.204 30.5315 136.895 30.6134 136.582 30.6087C136.204 30.6277 135.832 30.5059 135.539 30.2667ZM137.636 29.8021C137.76 29.6992 137.86 29.5695 137.927 29.4229C137.994 29.2761 138.028 29.1162 138.025 28.9548V28.4837L136.775 28.5698C136.044 28.6171 135.678 28.8852 135.678 29.3742C135.676 29.4828 135.7 29.5904 135.749 29.6878C135.796 29.7852 135.868 29.8695 135.956 29.9334C136.165 30.0836 136.419 30.1593 136.676 30.1484C137.029 30.1593 137.372 30.0346 137.636 29.8V29.8021Z" fill="#282828"/>
<path id="Vector_35" d="M139.767 30.3139C139.624 30.2184 139.504 30.0936 139.414 29.9478C139.325 29.802 139.267 29.6386 139.246 29.4687H139.777C139.8 29.5755 139.844 29.6768 139.907 29.7662C139.97 29.8556 140.05 29.9314 140.143 29.9892C140.372 30.1323 140.639 30.2028 140.909 30.1913C141.192 30.2068 141.472 30.1273 141.705 29.9655C141.797 29.8962 141.871 29.8056 141.921 29.7015C141.97 29.5974 141.994 29.4829 141.99 29.3676C141.99 28.8371 141.622 28.5711 140.887 28.5697H140.227V28.1287H140.887C141.14 28.1453 141.391 28.0771 141.601 27.9352C141.683 27.8707 141.748 27.7873 141.791 27.6922C141.834 27.597 141.853 27.493 141.847 27.3889C141.849 27.2898 141.83 27.1912 141.789 27.101C141.748 27.0107 141.687 26.9312 141.61 26.8684C141.41 26.7238 141.166 26.6523 140.92 26.6662C140.66 26.6569 140.404 26.7275 140.186 26.8684C140.097 26.9281 140.022 27.0049 139.964 27.0943C139.905 27.1837 139.865 27.2838 139.846 27.3889H139.336C139.358 27.2224 139.413 27.0619 139.498 26.9168C139.582 26.7716 139.695 26.6449 139.829 26.5436C140.147 26.3175 140.531 26.2032 140.921 26.2189C141.305 26.1952 141.686 26.3063 141.997 26.5329C142.118 26.6318 142.216 26.7577 142.28 26.9007C142.345 27.0437 142.375 27.1998 142.369 27.3566C142.371 27.5804 142.295 27.7981 142.154 27.9717C142.01 28.1448 141.811 28.2633 141.59 28.3073V28.3309C141.844 28.3675 142.079 28.4861 142.259 28.6686C142.344 28.7581 142.41 28.8635 142.454 28.9787C142.497 29.0939 142.517 29.2166 142.513 29.3397C142.521 29.5194 142.485 29.6984 142.411 29.8621C142.336 30.0258 142.224 30.1696 142.083 30.2817C141.75 30.5309 141.341 30.6556 140.926 30.6344C140.515 30.6547 140.108 30.5424 139.767 30.3139Z" fill="#282828"/>
<path id="Vector_36" d="M143.337 30.5592V26.2899H143.853V29.744H143.877L146.303 26.2899H146.823V30.5592H146.303V27.1072H146.275L143.853 30.5592H143.337Z" fill="#282828"/>
<path id="Vector_37" d="M150.758 28.5611H148.37V30.5592H147.849V26.2899H148.37V28.1224H150.764V26.2899H151.284V30.5592H150.764L150.758 28.5611Z" fill="#282828"/>
<path id="Vector_38" d="M152.617 30.015C152.272 29.5569 152.086 28.9991 152.086 28.4256C152.086 27.8522 152.272 27.2943 152.617 26.8362C152.8 26.649 153.02 26.5003 153.262 26.3989C153.503 26.2974 153.763 26.2451 154.025 26.2451C154.288 26.2451 154.547 26.2974 154.79 26.3989C155.031 26.5003 155.25 26.649 155.434 26.8362C155.779 27.2943 155.966 27.8522 155.966 28.4256C155.966 28.9991 155.779 29.5569 155.434 30.015C155.251 30.203 155.032 30.3523 154.79 30.4543C154.548 30.5563 154.288 30.6088 154.025 30.6088C153.763 30.6088 153.503 30.5563 153.261 30.4543C153.019 30.3523 152.8 30.203 152.617 30.015ZM155.053 29.6816C155.299 29.3088 155.43 28.8721 155.43 28.4256C155.43 27.9791 155.299 27.5425 155.053 27.1695C154.923 27.026 154.765 26.9112 154.588 26.8327C154.411 26.7542 154.219 26.7137 154.025 26.7137C153.832 26.7137 153.64 26.7542 153.463 26.8327C153.286 26.9112 153.127 27.026 152.997 27.1695C152.75 27.5419 152.619 27.9789 152.619 28.4256C152.619 28.8724 152.75 29.3093 152.997 29.6816C153.127 29.8252 153.286 29.9399 153.463 30.0184C153.64 30.0969 153.832 30.1375 154.025 30.1375C154.219 30.1375 154.411 30.0969 154.588 30.0184C154.765 29.9399 154.923 29.8252 155.053 29.6816Z" fill="#282828"/>
<path id="Vector_39" d="M156.774 26.29H158.495C158.832 26.2721 159.165 26.3734 159.435 26.576C159.629 26.7506 159.75 26.9915 159.775 27.2512C159.799 27.5109 159.726 27.7704 159.568 27.9783C159.436 28.1511 159.246 28.2697 159.033 28.3117V28.3354C159.291 28.3559 159.533 28.4689 159.714 28.6536C159.804 28.745 159.874 28.8533 159.92 28.9723C159.967 29.0913 159.989 29.2185 159.985 29.3462C159.994 29.5154 159.963 29.6842 159.895 29.8392C159.826 29.9941 159.722 30.131 159.592 30.2388C159.282 30.4679 158.901 30.5812 158.516 30.5593H156.776L156.774 26.29ZM157.293 26.7309V28.1289H158.368C158.974 28.1289 159.276 27.8901 159.276 27.4084C159.281 27.3142 159.264 27.2201 159.227 27.1335C159.19 27.0468 159.133 26.9701 159.061 26.9094C158.882 26.7807 158.665 26.7176 158.446 26.7309H157.293ZM157.293 28.5698V30.1205H158.503C159.152 30.1205 159.475 29.8603 159.474 29.3398C159.472 28.8193 159.113 28.5627 158.398 28.5698H157.293Z" fill="#282828"/>
</g>
</svg>
